<?xml version="1.0" standalone="no"?>
<!DOCTYPE svg PUBLIC "-//W3C//DTD SVG 20010904//EN"
 "http://www.w3.org/TR/2001/REC-SVG-20010904/DTD/svg10.dtd">
<svg version="1.0" xmlns="http://www.w3.org/2000/svg"
 width="600.000000pt" height="480.000000pt" viewBox="0 0 600.000000 480.000000"
 preserveAspectRatio="xMidYMid meet">
<metadata>
Created by potrace 1.16, written by Peter Selinger 2001-2019
</metadata>
<g transform="translate(0.000000,480.000000) scale(0.100000,-0.100000)"
fill="#000000" stroke="none">
<path d="M2310 3240 c-266 -37 -475 -137 -661 -317 -150 -145 -257 -316 -316
-508 -26 -85 -27 -100 -27 -285 0 -134 5 -215 15 -260 15 -65 15 -65 49 -64
32 0 35 3 38 32 2 18 7 32 13 32 5 0 9 -43 9 -96 0 -87 -2 -96 -20 -101 -25
-7 -25 -4 5 -62 61 -121 196 -252 319 -310 100 -48 169 -62 321 -68 163 -6
269 12 422 69 l92 35 4 -51 3 -51 2 55 c2 52 4 57 37 74 l35 19 38 -44 c20
-24 49 -57 64 -74 l27 -30 1 116 0 116 70 62 c99 89 193 210 251 327 l51 102
66 17 c78 19 229 89 290 134 40 29 42 34 42 81 0 28 -2 50 -4 50 -3 0 -42 -18
-88 -40 -73 -36 -160 -66 -238 -84 l-25 -5 0 172 c-1 160 -3 178 -28 253 -84
251 -273 377 -520 346 -256 -32 -399 -209 -367 -456 21 -168 94 -284 234 -370
110 -69 271 -116 399 -116 26 0 47 -5 47 -10 0 -20 -67 -116 -125 -178 -107
-116 -255 -203 -402 -236 -89 -20 -245 -20 -338 -1 -82 17 -196 71 -255 120
-23 19 -50 35 -59 35 -23 0 -51 31 -51 57 0 31 -32 66 -53 58 -13 -6 -17 -19
-17 -61 0 -30 -4 -54 -10 -54 -6 0 -10 28 -10 65 0 50 3 65 14 65 26 0 26 17
0 75 -47 107 -67 217 -68 365 0 156 13 219 75 347 76 158 216 314 364 402 144
87 338 137 503 128 l102 -5 0 58 c0 33 -4 61 -9 64 -17 11 -246 15 -311 6z
m547 -519 c64 -28 136 -102 168 -174 47 -103 56 -255 24 -394 -12 -52 -13 -53
-48 -53 -65 0 -175 29 -247 65 -164 81 -264 236 -264 411 0 76 25 119 90 152
40 21 56 23 135 19 65 -2 104 -10 142 -26z"/>
</g>
</svg>
