<svg xmlns="http://www.w3.org/2000/svg" width="180.335" height="271.067" viewBox="0 0 180.335 271.067">
  <g id="me2" transform="translate(-549.117 479.455)">
    <path id="path220" d="M620.828-208.387v-1.868h8.864v1.868" fill="#fff"/>
    <path id="path326" d="M720.834-430.923q1.56.506,3.1,1.105l.484-1.241q-1.578-.616-3.176-1.132l-.411,1.268" fill="#fff"/>
    <path id="path330" d="M572.611-218.629a119.468,119.468,0,0,1-19.573,9.307H553l4.387-12.6,15.227,3.293" fill="#f68672"/>
    <path id="path332" d="M611.531-288.455,586.917-226.5c-2.76,1.4-5.467,2.88-8.16,4.4-2.053,1.147-4.093,2.32-6.147,3.467l-23.493-5.08L573.2-295.2s3.92-54.295,6.507-60.587,15.573-13.88,15.573-13.88l16.253,81.213" fill="#212f3d"/>
    <path id="path334" d="M690.944-214.122c-5.213-2.227-10.387-4.533-15.532-6.76-22.6-9.76-48.6-18.8-73.268-11.813a84.429,84.429,0,0,0-15.227,6.2c-2.76,1.4-5.467,2.88-8.16,4.4,6.693-25.467,17.973-69.507,17.041-73.266-1.333-5.32-.521-74.306-.521-74.306l37.813-15,21.655-2.495,35.8,12.6s5.588,101.213.4,160.44" fill="#212f3d"/>
    <path id="path336" d="M593.1-330.847s47.589,8.4,90.41.509l.469,12.555s-71.541,7.765-90.5-2.9l-.38-10.164" fill="#2c3e50"/>
    <path id="path338" d="M594.888-314.735s47.588,8.4,90.41.509l.469,12.555s-71.541,7.765-90.5-2.9l-.38-10.164" fill="#fbc77d"/>
    <path id="path340" d="M596.671-298.623s47.588,8.4,90.412.509l.469,12.555s-71.541,7.765-90.5-2.9l-.381-10.164" fill="#2c3e50" stroke="#2c3e50" stroke-width="0.133"/>
    <path id="path342" d="M582.252-237.441l12.389-49.344s-5.831-56.044-2.6-69.467l7.928,69.451-17.717,49.36" fill="#212f3d"/>
    <path id="path344" d="M632.722-387.656s-14.4,5.5-16.585,9.711-.9,19.131-.9,19.131l15.305-10.551,13.748,14.809s23.855-13.157,22.644-28.312c0,0-7.887-4.485-12.18-5.743s-22.035.955-22.035.955" fill="#2c3e50"/>
    <path id="path346" d="M630.492-370.771,654.313-381.9c.657-3.943.493-10.02.117-15.441-.425-6.288-1.132-11.681-1.132-11.681l-22.58,5.459,1.844,14.656.537,4.231-2.608,13.908" fill="#f68672"/>
    <path id="path348" d="M630.718-403.566l1.844,14.656c4.9.56,9.905-.907,14.241-3.251a59.435,59.435,0,0,0,7.627-5.183c-.425-6.288-1.132-11.681-1.132-11.681l-22.58,5.459" fill="#f36269"/>
    <path id="path350" d="M658.288-407.751a11.56,11.56,0,0,1-3.612,3.9h-.005a23.982,23.982,0,0,1-2.052,1.405c-2.988,1.831-30.408,11.292-34.465,10.448s-6.895-15.2-7-16.7c-.655-9.18-2.237-37.515-2.237-37.515,12.332-29.853,47.231-11.391,51.111-8.089s-1.739,46.551-1.739,46.551" fill="#f68672"/>
    <path id="path352" d="M654.67-403.852a23.982,23.982,0,0,1-2.052,1.405c-2.988,1.831-30.408,11.292-34.465,10.448s-6.895-15.2-7-16.7c2.1,6.368,4.364,15.128,7.284,15.065,4.4-.091,32.881-8.756,36.233-10.22" fill="#f9aa7f"/>
    <path id="path354" d="M612.69-437.516s2.177-7.908,5.676-6.483,2.449,2.129,2.449,2.129l-8.125,4.353" fill="#470a27"/>
    <path id="path356" d="M650.313-441.13s-10.032-9.5-13.363-5.451c-1.944,2.364-.3,3.684-.3,3.684l13.665,1.767" fill="#470a27"/>
    <path id="path362" d="M621.977-418.335a2.18,2.18,0,0,0,1.368,1.073,8.668,8.668,0,0,0,2.515.763c.877.1,1.544-.461,2.373-.76a3.015,3.015,0,0,0,1.655-1.557,2.989,2.989,0,0,0,.049-2.253,9.254,9.254,0,0,1-6.957.816c-.383.551-1.228,1.305-1,1.919" fill="#f36269"/>
    <path id="path364" d="M626.086-432.991a20.486,20.486,0,0,1-3.348,14.607,6.943,6.943,0,0,0,6.421.587,4.809,4.809,0,0,1-4.257,1.847,4.941,4.941,0,0,1-3.9-2.644,48.449,48.449,0,0,0,5.081-14.4" fill="#f14568"/>
    <path id="path366" d="M642.746-413.632l-20,1.693s1.375,9.864,11.085,9.572,8.919-11.265,8.919-11.265" fill="#fff"/>
    <path id="path368" d="M617.456-430.364c-.125,2.267.917,4.168,2.329,4.245s2.657-1.7,2.783-3.964-.92-4.168-2.331-4.245-2.657,1.7-2.781,3.964" fill="#121414"/>
    <path id="path370" d="M615.369-432.476a6.126,6.126,0,0,0,2.269,1.936,6.132,6.132,0,0,0,2.939.512,6.126,6.126,0,0,0-2.269-1.936,6.13,6.13,0,0,0-2.939-.512" fill="#fff"/>
    <path id="path372" d="M648.8-431.886c-.152,2.755-1.664,4.911-3.38,4.816s-2.981-2.4-2.831-5.156,1.664-4.911,3.38-4.816,2.981,2.4,2.831,5.156" fill="#121414"/>
    <path id="path374" d="M651.594-434.158a7.438,7.438,0,0,1-3,2.035,7.445,7.445,0,0,1-3.616.228,7.448,7.448,0,0,1,3-2.036,7.455,7.455,0,0,1,3.616-.227" fill="#fff"/>
    <path id="path376" d="M654.3-406.954a16.735,16.735,0,0,0,12.063-5.556,13.386,13.386,0,0,0,1.279-1.637c1.771-2.723,2.936-12.527-.925-15.107-2.705-1.8-4.928.367-6.017,1.832v.005a9.569,9.569,0,0,0-.723,1.116L654.3-406.954" fill="#f9aa7f"/>
    <path id="path378" d="M654.3-406.954a16.735,16.735,0,0,0,12.063-5.556c.2-.265.385-.517.541-.759,1.769-2.723,2.935-12.527-.927-15.1-2.191-1.465-4.065-.319-5.279.949v.005a9.568,9.568,0,0,0-.723,1.116L654.3-406.954" fill="#f68672"/>
    <path id="path380" d="M667.416-421.347a4.248,4.248,0,0,1-.359,2.369c-1.34,3.221-4.82,5.5-8.147,7.609a8.309,8.309,0,0,0,1.483-5.089,18.3,18.3,0,0,1-.072-1.851c.156-2.477,6.24-7.777,7.095-3.039" fill="#f36269"/>
    <path id="path382" d="M657.257-410.544l.187-.089c.12-.06.309-.139.531-.267a7.155,7.155,0,0,0,1.66-1.293,6.356,6.356,0,0,0,1.471-2.528,5.486,5.486,0,0,0-.145-3.5,2.742,2.742,0,0,0-.2-.449l-.055-.111-.008-.013v0l0,0h0l.011-.016.059-.092.12-.18.248-.351a14.878,14.878,0,0,1,1.049-1.292c.361-.4.733-.76,1.1-1.091a9.02,9.02,0,0,1,1.067-.856,2.21,2.21,0,0,1,1.053-.377,1.623,1.623,0,0,1,.859.208.824.824,0,0,1,.363.379l.043.169,0-.177a.784.784,0,0,0-.293-.472,1.769,1.769,0,0,0-.973-.387,2.794,2.794,0,0,0-1.381.289,8.591,8.591,0,0,0-1.293.791,13.505,13.505,0,0,0-1.3,1.051,11.991,11.991,0,0,0-1.224,1.309c-.1.119-.188.243-.281.367l-.135.188-.181.268-.125.188.095.2.14.292a2.583,2.583,0,0,1,.169.391,5.8,5.8,0,0,1,.287,3.1,6.572,6.572,0,0,1-1.017,2.443,7.261,7.261,0,0,1-1.3,1.436c-.18.156-.343.261-.443.341l-.157.12" fill="#d03b58"/>
    <path id="path384" d="M676.965-439.16a16.691,16.691,0,0,0-4.793-2.408,39.515,39.515,0,0,1,.415,9.761,25.325,25.325,0,0,1-3.331,11.076c.213-2.88-1.336-8.768-4.224-8.745-2.619.015-4.421,1.695-5.268,4.179s-.628,5.2-.413,7.809a20.72,20.72,0,0,1-3.1-11.491c0-4.015,1.385-7.46,2.161-11.4a15.9,15.9,0,0,1-7.769-10.525,11.2,11.2,0,0,0-.8,5.405c-3.868-1.468-6.36-5.625-7.249-9.656a12,12,0,0,1-10.755,6.584,24.6,24.6,0,0,0,.62-5.885,9.952,9.952,0,0,1-11.28,5.595,22.846,22.846,0,0,0,1.008-7.16c-3.367,6.107-7.429,12.876-13.373,16.525a15.869,15.869,0,0,1-2.411-4.277,15.983,15.983,0,0,1-.927-8.161,16.274,16.274,0,0,1,6.831-10.921c-1.864-.435-4.315-1.283-6.227-1.245.307-1.641,3.164-9.693,16.516-13.3a22.436,22.436,0,0,1,18.912,3.559,52.18,52.18,0,0,0-3.6-5.609c16.221,1.224,25.028,7.68,27.683,16.231,4.567,1.256,8.683,5.772,10.492,10.139a23.8,23.8,0,0,1,.891,13.925" fill="#300c21"/>
    <path id="path386" d="M676.965-439.16a16.691,16.691,0,0,0-4.793-2.408,39.515,39.515,0,0,1,.415,9.761,32.205,32.205,0,0,0-5.117-7.972c-.783,1.071-1.565,2.157-2.348,3.228a28.23,28.23,0,0,0-4.721-14.385c-.332,1.44-1.287,2.869-1.636,4.311a39.472,39.472,0,0,1-6.091-6.575,13.272,13.272,0,0,1-2.568-8.437,22.264,22.264,0,0,0-3.3,6.876,12.4,12.4,0,0,1-2.224-6.467,22.1,22.1,0,0,1-8.515,4.517,12.31,12.31,0,0,0,1.849-7.14,25.476,25.476,0,0,1-14.095,8.035,15.072,15.072,0,0,0-2.573-8.2,43.747,43.747,0,0,1-9.324,15.7,22.628,22.628,0,0,1-5.524,4.54,15.983,15.983,0,0,1-.927-8.161,12.864,12.864,0,0,1,.429-1.981,16.286,16.286,0,0,1,6.4-8.94c-1.864-.435-4.315-1.283-6.227-1.245.307-1.641,3.164-9.693,16.516-13.3a22.436,22.436,0,0,1,18.912,3.559,52.179,52.179,0,0,0-3.6-5.609c16.221,1.224,25.028,7.68,27.683,16.231,4.567,1.256,8.683,5.772,10.492,10.139a23.8,23.8,0,0,1,.891,13.925" fill="#470a27"/>
    <path id="path388" d="M676.965-439.16a49.469,49.469,0,0,0-6.816-11.587c-1.605-2.04-3.732-4.093-6.313-3.98.135-1.769.287-3.555.439-5.324a17.572,17.572,0,0,1-4.593,4.253,14.308,14.308,0,0,0-10.867-15.635,14.694,14.694,0,0,1-1.38,7.544,10.676,10.676,0,0,0-7.569-7.46c.653,1.705,1.3,3.395,1.972,5.1a23.368,23.368,0,0,0-27.98-.381c1.132.647,2.249,1.309,3.365,1.973A18.905,18.905,0,0,1,605.9-453.919a16.286,16.286,0,0,1,6.4-8.94c-1.864-.435-4.315-1.283-6.227-1.245.307-1.641,3.164-9.693,16.516-13.3a22.436,22.436,0,0,1,18.912,3.559,52.179,52.179,0,0,0-3.6-5.609c16.221,1.224,25.028,7.68,27.683,16.231,4.567,1.256,8.683,5.772,10.492,10.139a23.8,23.8,0,0,1,.891,13.925" fill="#630d30"/>
    <path id="path390" d="M723.654-214.962c-15.587,17.515-88.988-14.645-88.988-14.645l8.3-34.523,47.129,5.308-.669-36.743-.1-5.857-.1-5.927-.119-5.857-.063-3.912s-.193-.681-.492-1.929c-.317-1.315-.744-3.264-1.187-5.665-.473-2.528-2.2,3.229-1.4-9.235s-1.617-28.1,4.591-40.621c0,0,16.895,3.684,23.88,17.881,10.739,21.829,22.245,127.09,9.219,141.725" fill="#212f3d"/>
    <path id="path392" d="M645.521-252.645l-1.444,3.615-4.9,12.307-10.092-3.505c-4.583-.264-9.293-1.027-13.877-1.293-2.521-.137-5.229-.367-7.172-1.965a11.011,11.011,0,0,1-2.884-4.659,58.062,58.062,0,0,1-3.079-11.212c-.332-1.947-.465-4.235.971-5.6a7.451,7.451,0,0,1,3.757-1.4,17.236,17.236,0,0,0,5.745-2.165,11.059,11.059,0,0,0,2.759-2.345,2.416,2.416,0,0,0,.695-1.408,3.068,3.068,0,0,0-.643-1.643,21.348,21.348,0,0,1-3.192-13.291l.031-.337a5.673,5.673,0,0,1,.924-2.871,2.367,2.367,0,0,1,2.668-.931,3.416,3.416,0,0,1,1.528,1.767c1.5,3.1,2.32,6.539,4.18,9.44,1.463,2.273,3.524,4.105,5.232,6.2,4.232,5.2,7.023,11.636,8.905,18.063l9.887,3.233" fill="#f68672"/>
    <path id="path394" d="M614.9-266.491l-2.348-2.032a11.062,11.062,0,0,0,2.759-2.345,2.416,2.416,0,0,0,.695-1.408c.643,1.641-1.105,5.785-1.105,5.785" fill="#f9aa7f"/>
    <path id="path396" d="M631.758-248.1l9.724,5.587,4.037-10.135-9.88-3.221c-1.892-6.431-4.68-12.875-8.916-18.071-1.709-2.095-3.761-3.921-5.227-6.195-1.863-2.9-2.672-6.345-4.187-9.447a3.333,3.333,0,0,0-1.519-1.761,2.373,2.373,0,0,0-2.673.929,5.738,5.738,0,0,0-.924,2.868l-.025.339a4.437,4.437,0,0,1,1.635-.992c1.64-.285,2.339,1.935,2.763,3.539,1.016,3.829,4.036,6.735,6.523,9.819,4.784,5.935,7.641,19.188,8.669,26.741" fill="#f9aa7f"/>
    <path id="path398" d="M602.931-243.681c5.163,2.295,11.979,1,11.979,1a13.747,13.747,0,0,0,1.2-3.853c.117-.6.2-1.227.265-1.871a36.359,36.359,0,0,0,.151-4.451c-.008-.667-.031-1.336-.068-2-.105-1.78-.281-3.54-.5-5.176-.084-.705-.183-1.381-.277-2.031-.273-1.761-.56-3.287-.791-4.425-.267-1.32-.459-2.115-.459-2.115-5.141-.633-12.688,2.571-12.688,2.571a20.073,20.073,0,0,0-1.252,5.9c-.581,8.021,2.439,16.453,2.439,16.453" fill="#f68672"/>
    <path id="path400" d="M600.492-260.134a13.924,13.924,0,0,1,3.755-3.515,16.922,16.922,0,0,1,4.417-1.683,32.389,32.389,0,0,1,5.4-1.192,4.453,4.453,0,0,1,.824.029c-.267-1.32-.459-2.115-.459-2.115-5.141-.633-12.688,2.571-12.688,2.571a20.073,20.073,0,0,0-1.252,5.9" fill="#f9aa7f"/>
    <path id="path402" d="M644.758-230.2l7.16-24.823,43.608,8.356s-7.739-57.784-8.831-70.913,1.492-40.169,1.492-40.169-6.979,21.515-6.657,34.075,7.756,69.945,7.756,69.945L644.5-261.326l-11.569,32.14s33.228,15.384,58.748,17.869c0,0-38.252-12.157-46.919-18.888" fill="#212f3d"/>
  </g>
</svg>
