<svg xmlns="http://www.w3.org/2000/svg" width="42.08" height="42.081" viewBox="0 0 42.08 42.081">
  <g id="new" transform="translate(-540.047 550.18)">
    <path id="path404" d="M560.792-529.353c-7.353,3.275-9.759,13.509-13.034,6.156a15.214,15.214,0,0,1-.675-1.831,14.561,14.561,0,0,1,1.285-11.247l.047-.093a14.486,14.486,0,0,1,6.724-6.1,14.016,14.016,0,0,1,1.683-.62l.176-.056a14.543,14.543,0,0,1,8.7.167l.028.009a14.7,14.7,0,0,1,6.215,4.08,14.268,14.268,0,0,1,2.471,3.809,14.924,14.924,0,0,1,.905,2.7,14.544,14.544,0,0,1-.239,7.353c-1.157,3.968-10.23-6.138-14.29-4.325Zm20.5-5.673a21.068,21.068,0,0,0-.981-2.683,21.005,21.005,0,0,0-4.467-6.437,21.087,21.087,0,0,0-5.928-4.079l-.121-.055a21.093,21.093,0,0,0-9.877-1.869,21.073,21.073,0,0,0-6.975,1.609c-.137.065-.287.12-.425.185A20.868,20.868,0,0,0,543.08-540a21.039,21.039,0,0,0-2.628,14.975,21.09,21.09,0,0,0,1.415,4.457,21.061,21.061,0,0,0,27.785,10.647,21.025,21.025,0,0,0,12.061-15.1,20.888,20.888,0,0,0-.425-10" fill="#1a5276"/>
    <path id="path406" d="M581.713-525.028h-6.631a14.545,14.545,0,0,0,.239-7.353,14.922,14.922,0,0,0-.905-2.7,14.271,14.271,0,0,0-2.471-3.809,14.7,14.7,0,0,0-6.215-4.08l-.028-.009a14.543,14.543,0,0,0-8.7-.167l-.176.056c-.573.167-.688,7.824-1.243,8.065-2.949,1.313-5.684-3.949-7.164-1.341l-.047.093a14.562,14.562,0,0,0-1.285,11.247h-6.632A21.039,21.039,0,0,1,543.08-540a20.867,20.867,0,0,1,9.433-8.352c.139-.065.288-.12.425-.185a21.069,21.069,0,0,1,6.975-1.609,21.093,21.093,0,0,1,9.877,1.869l.121.055a21.088,21.088,0,0,1,5.928,4.079,21.006,21.006,0,0,1,4.467,6.437,21.049,21.049,0,0,1,.981,2.683,20.888,20.888,0,0,1,.425,10" fill="#1f618d"/>
  </g>
</svg>
