<?xml version="1.0" standalone="no"?>
<!DOCTYPE svg PUBLIC "-//W3C//DTD SVG 20010904//EN"
 "http://www.w3.org/TR/2001/REC-SVG-20010904/DTD/svg10.dtd">
<svg version="1.0" xmlns="http://www.w3.org/2000/svg"
 width="64.000000pt" height="64.000000pt" viewBox="0 0 64.000000 64.000000"
 preserveAspectRatio="xMidYMid meet">

<g transform="translate(0.000000,64.000000) scale(0.100000,-0.100000)"
fill="#000000" stroke="none">
<path d="M246 499 c-50 -39 -79 -124 -60 -174 5 -13 8 -14 15 -3 6 9 8 3 8
-17 0 -16 -3 -24 -6 -17 -2 6 -8 10 -13 7 -12 -8 7 -68 25 -78 16 -9 21 -37 5
-37 -5 0 -23 -20 -39 -44 -31 -45 -110 -94 -131 -81 -12 7 -43 -21 -46 -41 -2
-12 46 -14 267 -14 262 0 269 0 269 20 0 11 -5 20 -11 20 -5 0 -7 5 -3 11 3 6
18 8 33 5 26 -6 26 -6 -4 10 -19 11 -30 13 -33 6 -3 -11 -28 -6 -50 11 -9 7
-9 13 -1 23 11 14 4 54 -11 54 -4 0 -15 -11 -23 -23 -12 -19 -22 -23 -46 -19
-40 6 -40 18 1 26 38 7 30 20 -14 20 -36 1 -52 26 -17 26 l23 0 -22 16 c-22
15 -22 17 -7 34 14 16 14 18 0 23 -10 5 -15 21 -15 54 -1 58 -25 93 -67 93
-15 0 -23 4 -18 8 20 14 17 35 -5 29 -13 -3 -20 -1 -17 6 2 6 26 18 53 25 27
8 56 16 64 19 13 4 13 5 0 13 -26 16 -76 11 -104 -11z m50 -153 c3 -23 -20
-15 -24 8 -3 11 1 17 9 14 7 -2 13 -12 15 -22z m-8 -58 c4 -22 -23 -24 -44 -4
-21 21 -17 28 13 24 17 -2 29 -10 31 -20z"/>
<path d="M380 390 c0 -5 4 -10 9 -10 6 0 13 5 16 10 3 6 -1 10 -9 10 -9 0 -16
-4 -16 -10z"/>
<path d="M380 361 c0 -13 28 -22 35 -10 4 5 11 7 16 4 5 -4 9 -1 9 4 0 6 -13
11 -30 11 -16 0 -30 -4 -30 -9z"/>
<path d="M615 30 c3 -5 11 -10 16 -10 6 0 7 5 4 10 -3 6 -11 10 -16 10 -6 0
-7 -4 -4 -10z"/>
</g>
</svg>
